<svg xmlns="http://www.w3.org/2000/svg" width="24" height="24" viewBox="0 0 24 24"><path d="M12 3.571c3.658 5.437 6 9.223 6 12.503 0 3.268-2.691 5.926-6 5.926s-6-2.658-6-5.925c0-3.281 2.342-7.067 6-12.504zm0-3.571c-4.87 7.197-8 11.699-8 16.075 0 4.378 3.579 7.925 8 7.925s8-3.547 8-7.925c0-4.376-3.13-8.878-8-16.075zm-2 12c-.553 0-1 .448-1 1s.447 1 1 1c.552 0 1-.448 1-1s-.448-1-1-1zm4 0c-.553 0-1 .448-1 1s.447 1 1 1c.552 0 1-.448 1-1s-.448-1-1-1zm-5.672 6.706c1.008-.796 2.115-1.287 3.672-1.287 1.555 0 2.662.491 3.672 1.287l.328-.328c-.752-1.147-2.133-2.378-4-2.378s-3.248 1.231-4 2.378l.328.328z"/></svg>