<svg xmlns="http://www.w3.org/2000/svg" width="24" height="24" viewBox="0 0 24 24"><path d="M12 3.571c3.658 5.437 6 9.223 6 12.503 0 3.268-2.691 5.926-6 5.926s-6-2.658-6-5.925c0-3.281 2.342-7.067 6-12.504zm0-3.571c-4.87 7.197-8 11.699-8 16.075 0 4.378 3.579 7.925 8 7.925s8-3.547 8-7.925c0-4.376-3.13-8.878-8-16.075zm1.749 18.871c-.618-.13-1.19-.193-1.751-.193s-1.135.063-1.752.193c-.76.16-1.328-.164-1.541-.694-.584-1.457.975-2.712 3.293-2.712 2.417 0 3.872 1.267 3.293 2.713-.211.525-.777.854-1.542.693zm-1.751-1.344c1.104 0 2.089.458 2.191.191.549-1.421-4.924-1.48-4.383 0 .094.258 1.104-.191 2.192-.191zm4.002-4.09l-.541.363s-.361-.681-1.253-.681c-.866 0-1.252.681-1.252.681l-.541-.363c.202-.537.864-1.437 1.793-1.437s1.592.9 1.794 1.437zm-4.413 0l-.541.363s-.36-.681-1.252-.681c-.867 0-1.253.681-1.253.681l-.541-.363c.202-.537.864-1.437 1.794-1.437.928 0 1.591.9 1.793 1.437z"/></svg>