<svg xmlns="http://www.w3.org/2000/svg" width="24" height="24" viewBox="0 0 24 24"><path d="M12 9.312l-1.762.491 1.562.881-.491.871-1.562-.881.491 1.762-.963.268-.76-2.724-2.015-1.126v1.939l2 2-.707.707-1.293-1.293v1.793h-1v-1.793l-1.293 1.293-.707-.707 2-2v-1.939l-2.015 1.126-.761 2.724-.963-.268.491-1.762-1.562.882-.491-.871 1.562-.881-1.761-.492.269-.962 2.725.76 1.982-1.11-1.983-1.109-2.724.759-.269-.962 1.762-.491-1.563-.882.491-.871 1.562.881-.49-1.762.963-.269.76 2.725 2.015 1.128v-1.94l-2-2 .707-.707 1.293 1.293v-1.793h1v1.793l1.293-1.293.707.707-2 2v1.94l2.016-1.127.76-2.725.963.269-.492 1.761 1.562-.881.491.871-1.562.881 1.762.492-.269.962-2.725-.76-1.982 1.11 1.982 1.109 2.725-.76.269.963zm4-5.812v7.525c0 1.57-.514 2.288-1.41 3.049-1.011.859-1.59 2.107-1.59 3.426 0 2.481 2.019 4.5 4.5 4.5s4.5-2.019 4.5-4.5c0-1.319-.579-2.567-1.589-3.426-.897-.762-1.411-1.48-1.411-3.049v-7.525c0-.827-.673-1.5-1.5-1.5s-1.5.673-1.5 1.5zm5 0v7.525c0 .587.258 1.145.705 1.525 1.403 1.192 2.295 2.966 2.295 4.95 0 3.59-2.909 6.5-6.5 6.5s-6.5-2.91-6.5-6.5c0-1.984.892-3.758 2.295-4.949.447-.381.705-.94.705-1.526v-7.525c0-1.934 1.567-3.5 3.5-3.5s3.5 1.566 3.5 3.5zm0 14c0 1.934-1.567 3.5-3.5 3.5s-3.5-1.566-3.5-3.5c0-1.141.599-2.084 1.393-2.781 1.01-.889 1.607-1.737 1.607-3.221v-.498h1v.498c0 1.486.595 2.33 1.607 3.221.794.697 1.393 1.64 1.393 2.781z"/></svg>